<svg width="559" height="559" viewBox="0 0 559 559" fill="none" xmlns="http://www.w3.org/2000/svg">
<path d="M163.894 421.008H34V135H235.037V187.292H88.5556V237.189H163.894C181.214 237.189 196.868 241.38 210.856 249.763C224.978 258.012 236.169 269.123 244.429 283.094C252.689 296.932 256.819 312.233 256.819 328.999C256.819 345.764 252.689 361.132 244.429 375.103C236.169 388.941 224.978 400.052 210.856 408.434C196.868 416.817 181.214 421.008 163.894 421.008ZM163.695 368.716C174.219 368.716 183.279 364.924 190.872 357.34C198.466 349.623 202.263 340.176 202.263 328.999C202.263 317.822 198.466 308.441 190.872 300.857C183.279 293.273 174.219 289.48 163.695 289.48H88.5556V368.716H163.695Z" fill="black" fill-opacity="0.36"/>
<path d="M466.648 304.649H339.751V251.559H466.648C464.517 244.374 461.586 237.455 457.855 230.802C449.462 216.698 438.271 205.521 424.283 197.271C410.427 189.022 395.04 184.897 378.12 184.897C357.071 184.897 258.388 187.292 235.037 187.292V135C254.574 135 314.326 135 330.217 135C351.829 135 360.934 135 378.12 135C405.565 135 430.478 138.06 452.859 151.366C475.241 164.539 493.027 182.236 506.216 204.456C519.405 226.677 526 251.226 526 278.104C526 304.982 519.405 329.531 506.216 351.752C493.027 373.839 475.241 391.602 452.859 405.041C430.478 418.347 405.565 425 378.12 425C359.469 425 341.816 421.74 325.163 415.22C308.51 408.7 292.59 398.721 277.402 385.282L313.173 344.367C324.497 354.213 335.288 361.132 345.547 365.124C355.805 369.116 366.663 371.112 378.12 371.112C395.04 371.112 410.427 366.987 424.283 358.737C438.271 350.488 449.462 339.311 457.855 325.206C461.586 318.687 464.517 311.834 466.648 304.649Z" fill="black" fill-opacity="0.36"/>
</svg>
