<svg width="559" height="559" viewBox="0 0 559 559" fill="none" xmlns="http://www.w3.org/2000/svg">
<g clip-path="url(#clip0_50_15)">
<path d="M73.6355 255.229H0V1.41695H73.6355V47.9993H19.9094V105.032L55.4828 90.1537L58.7034 136.205L19.9094 152.323V208.646H73.6355V255.229Z" fill="#FF0000"/>
<path d="M175.012 255.229H155.908L107.818 84.1316V255.229H87.8355V1.41695H106.793L155.03 173.045V1.41695H175.012V255.229Z" fill="#FF0000"/>
<path d="M213.074 255.229H193.092V1.41695H213.074V255.229Z" fill="#FF0000"/>
<path d="M284.587 257C274.681 257 265.678 251.155 257.578 239.465C249.477 227.775 243.036 212.248 238.254 192.883C233.521 173.518 231.154 152.027 231.154 128.411C231.154 104.914 233.521 83.4822 238.254 64.1172C243.036 44.634 249.477 29.1066 257.578 17.5348C265.678 5.84493 274.681 0 284.587 0C290.784 0 296.689 2.42063 302.301 7.26189C307.912 12.1031 313.402 19.6602 318.77 29.9331L306.619 67.4824C299.544 53.7852 292.2 46.9366 284.587 46.9366C278.487 46.9366 272.925 50.5971 267.898 57.918C262.921 65.1208 258.92 74.9214 255.894 87.3198C252.869 99.6 251.356 113.297 251.356 128.411C251.356 143.526 252.869 157.282 255.894 169.68C258.92 181.96 262.921 191.761 267.898 199.082C272.925 206.285 278.487 209.886 284.587 209.886C290.589 209.886 295.786 206.698 300.178 200.322V143.112L279.903 151.614V103.792L320.38 86.9655V223.524C318.379 228.011 315.769 232.735 312.548 237.694C309.327 242.653 305.375 247.14 300.69 251.155C296.006 255.052 290.638 257 284.587 257Z" fill="#FF0000"/>
<path d="M440.349 255.406H420.366L420.293 84.1316L389.99 186.684L359.76 84.3088V255.406H339.777V1.23983H358.735L389.99 107.688L421.171 1.23983H440.349V255.406Z" fill="#FF0000"/>
<path d="M559 255.229H538.798L527.452 190.226H483.242L471.823 255.229H451.621L495.978 1.41695H514.716L559 255.229ZM519.328 143.644L505.347 63.7629L491.367 143.644H519.328Z" fill="#FF0000"/>
<path d="M39.9333 559C36.5111 559 33 557.826 29.4 555.479C23.4 551.888 17.9778 545.191 13.1333 535.387C8.33333 525.444 3.95556 512.188 0 495.617L14.3333 462.269C19.4 483.673 25.6889 497.067 33.2 502.453C35.5556 503.972 37.8 504.731 39.9333 504.731C45.8 504.731 51.0222 498.862 55.6 487.125C57.9111 480.773 59.0667 473.385 59.0667 464.962C59.0667 450.186 57.0222 439.968 52.9333 434.306C51.6 432.373 49.5111 430.577 46.6667 428.92C43.8667 427.263 40.7778 425.537 37.4 423.742C30.8667 420.98 25.6667 417.735 21.8 414.007C15.0444 406.136 10.1556 394.813 7.13333 380.037C4.6 367.747 3.33333 354.836 3.33333 341.303C3.33333 321.833 5.35556 304.917 9.4 290.556C13.4889 276.194 18.9111 266.252 25.6667 260.728C28.7333 258.243 32.0667 257 35.6667 257C40.0222 257 44.7556 258.864 49.8667 262.593C55.3333 267.426 59.9333 274.675 63.6667 284.342C67.4 293.87 70.5111 303.674 73 313.754L58.8667 347.724L57.2 341.717C56.0889 336.608 54.6444 331.499 52.8667 326.39C51.0889 321.28 48.6889 317.207 45.6667 314.169C42.2444 311.269 39.2 309.819 36.5333 309.819C34.5778 309.819 32.3556 311.062 29.8667 313.547C27.4222 316.033 25.5111 321.004 24.1333 328.461C23.2 333.432 22.7333 338.334 22.7333 343.167C22.7333 354.214 24.4889 361.188 28 364.088C30.3556 365.883 33.7111 367.954 38.0667 370.302C42.4667 372.511 46.8667 375.066 51.2667 377.966C55.6667 380.727 59.1778 384.042 61.8 387.908C68.2444 398.541 72.7111 412.626 75.2 430.163C76.7556 441.21 77.5333 452.326 77.5333 463.512C77.5333 491.406 73.8444 513.914 66.4667 531.037C58.5556 549.679 49.7111 559 39.9333 559Z" fill="#FF0000"/>
<path d="M131.8 559H113.6V316.654H81.8667V262.178H163.467V316.654H131.8V559Z" fill="#FF0000"/>
<path d="M249.667 558.793H231.267L220.933 482.775H180.667L170.267 558.793H151.867L192.267 261.971H209.333L249.667 558.793ZM213.533 428.299L200.8 334.882L188.067 428.299H213.533Z" fill="#FF0000"/>
<path d="M325.867 558.793H258.8V261.971H277V504.317H325.867V558.793Z" fill="#FF0000"/>
<path d="M356.867 558.793H338.667V261.971H356.867V558.793Z" fill="#FF0000"/>
<path d="M452.733 558.793H435.333L391.533 358.702V558.793H373.333V261.971H390.6L434.533 462.683V261.971H452.733V558.793Z" fill="#FF0000"/>
<path d="M559 558.793H540.6L530.267 482.775H490L479.6 558.793H461.2L501.6 261.971H518.667L559 558.793ZM522.867 428.299L510.133 334.882L497.4 428.299H522.867Z" fill="#FF0000"/>
</g>
<defs>
<clipPath id="clip0_50_15">
<rect width="559" height="559" fill="white"/>
</clipPath>
</defs>
</svg>
